<?xml version="1.0" encoding="UTF-8" standalone="no"?>
<!-- Created with Inkscape (http://www.inkscape.org/) -->

<svg
   width="48"
   height="48"
   viewBox="0 0 12.7 12.7"
   version="1.1"
   id="svg1"
   inkscape:version="1.3.2 (091e20e, 2023-11-25, custom)"
   sodipodi:docname="att.svg"
   xmlns:inkscape="http://www.inkscape.org/namespaces/inkscape"
   xmlns:sodipodi="http://sodipodi.sourceforge.net/DTD/sodipodi-0.dtd"
   xmlns:xlink="http://www.w3.org/1999/xlink"
   xmlns="http://www.w3.org/2000/svg"
   xmlns:svg="http://www.w3.org/2000/svg">
  <sodipodi:namedview
     id="namedview1"
     pagecolor="#ffffff"
     bordercolor="#000000"
     borderopacity="0.25"
     inkscape:showpageshadow="2"
     inkscape:pageopacity="0.0"
     inkscape:pagecheckerboard="0"
     inkscape:deskcolor="#d1d1d1"
     inkscape:document-units="mm"
     inkscape:zoom="5.7941077"
     inkscape:cx="58.939187"
     inkscape:cy="56.177761"
     inkscape:window-width="1920"
     inkscape:window-height="1009"
     inkscape:window-x="-8"
     inkscape:window-y="-8"
     inkscape:window-maximized="1"
     inkscape:current-layer="layer1" />
  <defs
     id="defs1">
    <radialGradient
       xlink:href="#a"
       id="b"
       cx="309.19046"
       cy="132.24107"
       r="400.112"
       fx="309.19046"
       fy="132.24107"
       gradientTransform="matrix(0,0.01909388,-0.02298839,0,7.1710976,0.53376898)"
       gradientUnits="userSpaceOnUse" />
    <linearGradient
       id="a">
      <stop
   offset="0"
   stop-color="#00a8e0"
   id="stop1" />

      <stop
   offset="1"
   stop-color="#1696d4"
   id="stop2" />

    </linearGradient>
  </defs>
  <g
     inkscape:label="Layer 1"
     inkscape:groupmode="layer"
     id="layer1">
    <path
       fill="url(#b)"
       d="m 2.4544606,11.365441 c 1.0770261,0.833726 2.4288723,1.334635 3.8955265,1.334635 1.6050551,0 3.0682297,-0.595887 4.1849669,-1.574078 0.01357,-0.01196 0.0069,-0.01987 -0.0065,-0.01196 -0.501098,0.334674 -1.9293302,1.065199 -4.1784257,1.065199 -1.9545432,0 -3.1897558,-0.436113 -3.8873191,-0.825439 -0.013362,-0.0066 -0.018283,0.0034 -0.00828,0.01164 m 4.3267338,0.324577 c 1.5632827,0 3.281145,-0.426143 4.308573,-1.269698 0.28115,-0.22987 0.548952,-0.5357422 0.788823,-0.9468677 0.13807,-0.2365533 0.273121,-0.5175779 0.383133,-0.7938267 0.0049,-0.013467 -0.0034,-0.020055 -0.01355,-0.00489 -0.955442,1.4060364 -3.7221812,2.2830264 -6.5789595,2.2830264 -2.0193212,0 -4.1920028,-0.645739 -5.04265408,-1.8786981 -0.00839,-0.011404 -0.016748,-0.00651 -0.011642,0.00656 C 1.4073162,10.769951 3.8113415,11.690018 6.781165,11.690018 M 5.0731503,8.8958907 c -3.2513587,0 -4.78444198,-1.5142712 -5.06251368,-2.5476676 -0.00344,-0.014975 -0.013282,-0.011694 -0.013282,0.00185 0,0.3478848 0.034803,0.796843 0.094755,1.0948273 0.028562,0.1450843 0.1466083,0.3727 0.3196854,0.5541434 0.78731808,0.820629 2.75013218,1.9705317 6.14948288,1.9705317 4.6314481,0 5.6903931,-1.5427534 5.9066401,-2.0501396 0.154627,-0.3628575 0.234727,-1.0185347 0.234727,-1.5693786 0,-0.1333051 -0.0034,-0.2397443 -0.0084,-0.3442653 0,-0.016933 -0.0098,-0.018336 -0.0132,-0.00185 -0.23141,1.2414991 -4.1884272,2.8920281 -7.6078942,2.8920281 M 0.60978812,3.6257956 c -0.1862719,0.3697341 -0.392803,0.9934998 -0.4541996,1.3163444 -0.026911,0.1383083 -0.015452,0.2047531 0.033057,0.3079538 0.3897048,0.8268203 2.36085598,2.149737 6.95878768,2.149737 2.8050836,0 4.9841298,-0.6891311 5.3371428,-1.9466983 0.06503,-0.2315052 0.06848,-0.4759352 -0.01503,-0.8052912 -0.09329,-0.3680645 -0.268054,-0.7972081 -0.415951,-1.0985711 -0.0049,-0.00984 -0.01349,-0.00836 -0.01172,0.00325 0.05494,1.649431 -4.5448081,2.7124712 -6.8656537,2.7124712 -2.5138618,0 -4.61114248,-1.0015961 -4.61114248,-2.2662753 0,-0.121494 0.025162,-0.2430647 0.056555,-0.3695409 0.00315,-0.011615 -0.00677,-0.01352 -0.011853,-0.00339 M 10.545235,1.6006457 c 0.0267,0.041804 0.04001,0.08645 0.04001,0.1465607 -1.6e-5,0.7055511 -2.1593752,1.9537177 -5.5968285,1.9537177 -2.5257099,0 -2.9985626,-0.9369743 -2.9985626,-1.532845 0,-0.2129923 0.081688,-0.4309534 0.2616068,-0.65228 0.00982,-0.01315 0.00159,-0.01823 -0.00987,-0.00847 C 1.913475,1.7854042 1.6119982,2.0982978 1.347518,2.4360358 1.2211662,2.5957754 1.1427332,2.7372904 1.1427332,2.8220576 c 0,1.2348157 3.0963023,2.1301445 5.9914233,2.1301445 3.0847925,0 4.4615485,-1.0070253 4.4615485,-1.8920354 0,-0.3162882 -0.123129,-0.500925 -0.438068,-0.8588745 -0.204448,-0.2328862 -0.397817,-0.4224761 -0.602506,-0.609129 -0.0099,-0.00812 -0.01677,-0.00159 -0.0099,0.00847 M 9.5995118,0.8952216 C 8.6474538,0.32458146 7.5419271,-7.5505e-5 6.3500268,-7.5505e-5 c -1.200187,0 -2.3390569,0.336010235 -3.2945123,0.921766005 -0.286631,0.1763792 -0.4479104,0.3177011 -0.4479104,0.4994328 0,0.5356145 1.2517543,1.1115119 3.4725424,1.1115119 2.197735,0 3.9023393,-0.6308011 3.9023393,-1.2380225 3.2e-5,-0.1449096 -0.126637,-0.2463191 -0.382974,-0.3993911"
       id="path2"
       style="fill:url(#b);stroke-width:0.0158772"
       inkscape:label="path2" />
  </g>
</svg>
